<?xml version="1.0" standalone="no"?>
<!DOCTYPE svg PUBLIC "-//W3C//DTD SVG 20010904//EN"
 "http://www.w3.org/TR/2001/REC-SVG-20010904/DTD/svg10.dtd">
<svg version="1.0" xmlns="http://www.w3.org/2000/svg"
 width="256.000000pt" height="256.000000pt" viewBox="0 0 256.000000 256.000000"
 preserveAspectRatio="xMidYMid meet">
<metadata>
Created by potrace 1.14, written by Peter Selinger 2001-2017
</metadata>
<g transform="translate(0.000000,256.000000) scale(0.100000,-0.100000)"
fill="#000000" stroke="none">
<path d="M1075 2414 c-382 -71 -703 -328 -856 -687 -105 -247 -117 -550 -33
-805 134 -404 467 -693 894 -778 55 -11 310 -14 360 -4 25 4 61 11 80 14 46 7
140 37 219 70 58 25 209 111 221 126 3 3 15 13 27 21 12 9 46 38 75 65 185
173 302 387 354 644 14 70 13 323 -2 400 -91 483 -462 852 -937 934 -107 18
-301 18 -402 0z m343 -249 c140 -22 322 -103 427 -192 201 -169 320 -408 328
-659 14 -389 -222 -740 -585 -873 -116 -43 -187 -55 -319 -54 -272 1 -538 135
-705 356 -80 105 -152 277 -171 407 -9 63 -5 244 7 295 6 28 14 61 16 75 18
92 116 267 203 362 203 221 508 329 799 283z"/>
<path d="M1223 1905 c-118 -51 -75 -235 56 -238 71 -2 132 62 127 132 -7 93
-96 144 -183 106z"/>
<path d="M1116 1529 c-39 -11 -74 -46 -85 -86 -19 -67 25 -144 89 -158 l29 -6
3 -277 c3 -271 4 -278 26 -309 48 -67 156 -67 204 0 23 32 23 35 26 382 2 319
1 353 -15 384 -31 60 -61 74 -160 76 -49 1 -101 -2 -117 -6z"/>
</g>
</svg>
