<?xml version="1.0" standalone="no"?>
<!DOCTYPE svg PUBLIC "-//W3C//DTD SVG 20010904//EN"
 "http://www.w3.org/TR/2001/REC-SVG-20010904/DTD/svg10.dtd">
<svg version="1.0" xmlns="http://www.w3.org/2000/svg"
 width="1024.000000pt" height="1024.000000pt" viewBox="0 0 1024.000000 1024.000000"
 preserveAspectRatio="xMidYMid meet">

<g transform="translate(0.000000,1024.000000) scale(0.100000,-0.100000)"
fill="#000000" stroke="none">
<path d="M4790 9829 c-1351 -91 -2606 -767 -3429 -1848 -888 -1167 -1182
-2698 -791 -4122 500 -1824 2063 -3181 3935 -3419 1919 -243 3762 670 4716
2335 460 803 675 1763 609 2715 -91 1304 -712 2488 -1735 3307 -931 745 -2107
1112 -3305 1032z m615 -579 c187 -14 409 -45 580 -81 1505 -318 2725 -1447
3150 -2915 281 -970 189 -2043 -254 -2960 -204 -422 -437 -755 -761 -1088
-536 -551 -1193 -934 -1935 -1126 -1043 -271 -2161 -130 -3090 389 -1090 608
-1846 1655 -2079 2876 -222 1166 94 2399 860 3355 365 456 862 858 1385 1121
655 328 1419 481 2144 429z"/>
<path d="M4928 7539 c-601 -58 -969 -423 -1077 -1070 -58 -349 -47 -653 34
-934 203 -702 790 -1203 1332 -1136 531 65 1026 570 1169 1191 91 397 26 969
-149 1316 -237 469 -698 692 -1309 633z"/>
<path d="M3930 4369 c-271 -73 -516 -220 -667 -400 -75 -88 -175 -268 -215
-386 -87 -251 -19 -471 186 -605 l59 -38 1877 0 1877 0 46 31 c56 37 141 128
166 178 55 107 67 265 31 404 -20 79 -97 257 -111 257 -4 0 -52 50 -106 111
-189 213 -379 342 -626 424 -168 56 -163 56 -222 -21 -128 -169 -363 -347
-569 -429 -153 -62 -229 -76 -441 -82 -294 -8 -441 19 -650 122 -174 86 -367
241 -486 392 -28 35 -56 63 -62 62 -7 0 -46 -9 -87 -20z"/>
</g>
</svg>
